<?xml version="1.0" encoding="UTF-8"?>
<svg xmlns="http://www.w3.org/2000/svg" xmlns:xlink="http://www.w3.org/1999/xlink" width="500"
  height="500" viewBox="0 0 2400 2400">

  <path fill-rule="evenodd" fill="rgb(98.826599%, 89.0625%, 76.951599%)" fill-opacity="1"
    d="M 998.644531 1119.601562 L 995.675781 1099.351562 L 988.589844 1087.148438 L 983.117188 1075.828125 L 980.691406 1062.820312 C 978.6875 1057.988281 977.488281 1056.121094 977.710938 1051.179688 L 976.234375 1044.289062 C 976.535156 1040.488281 977.515625 1039 979 1039.078125 C 983.683594 1039.359375 987.914062 1048.210938 989.445312 1051.960938 L 988.160156 1036 L 987.199219 1027.921875 L 987.402344 1017.160156 L 988.066406 1008.980469 L 988.460938 1002.761719 L 989.472656 998.421875 C 992.089844 996.761719 993.984375 996.738281 995.429688 997.730469 C 999.882812 1000.761719 999.550781 1010.601562 999.832031 1015.019531 L 1000.378906 1029.039062 L 1001.589844 1036.191406 L 1002.300781 1032.230469 L 1001.429688 1023.941406 L 1001.558594 1016.011719 L 1002.398438 1011.070312 L 1004.230469 1005.179688 L 1007.941406 992.640625 L 1009.160156 987.488281 C 1017.570312 985.898438 1020.03125 989.699219 1019.128906 997.339844 C 1015.410156 1005.921875 1014.820312 1008.609375 1014.738281 1018.441406 L 1017.039062 1012.128906 L 1021.261719 994.078125 C 1021.898438 993.019531 1022.25 992.351562 1022.671875 992.03125 C 1023.308594 991.550781 1024.121094 991.878906 1026.390625 992.910156 C 1031.671875 995.320312 1030.101562 998.761719 1029.019531 1005.050781 L 1027.070312 1015.859375 C 1026.230469 1022.25 1025.058594 1028.820312 1025.460938 1035.441406 C 1025.601562 1037.671875 1025.910156 1039.898438 1026.480469 1042.140625 L 1029.078125 1044.761719 L 1030.488281 1044.148438 C 1032.179688 1034.511719 1035.488281 1026.949219 1039.28125 1018.191406 L 1040.648438 1013.378906 L 1043.800781 1012.078125 C 1047.140625 1014.441406 1048.03125 1017.5 1047.871094 1020.71875 C 1047.769531 1022.550781 1047.339844 1024.441406 1046.808594 1026.289062 C 1045.089844 1032.371094 1043.648438 1038.421875 1041.851562 1044.488281 L 1041.019531 1048.390625 L 1040.871094 1059.710938 C 1040.960938 1086.699219 1036.039062 1088.921875 1031.449219 1102.699219 L 1026.738281 1124.910156 L 998.644531 1119.601562 " />
  <path fill-rule="evenodd" fill="rgb(54.492188%, 67.381287%, 92.96875%)" fill-opacity="1"
    d="M 879.132812 1200.011719 L 990.632812 1274.171875 L 1012.949219 1310.78125 C 1005.578125 1366.339844 965.632812 1343.859375 928.195312 1324.28125 C 884.71875 1301.53125 829.015625 1272.929688 790.300781 1244.890625 C 703.042969 1181.699219 768.171875 1117.148438 879.132812 1200.011719 " />
  <path fill-rule="evenodd" fill="rgb(54.492188%, 67.381287%, 92.96875%)" fill-opacity="1"
    d="M 957.371094 1316.300781 C 1040.441406 1425.273438 1038.460938 1169.890625 1042.148438 1109.390625 L 989.484375 1100.050781 L 962.464844 1237.5 L 950.546875 1289.398438 L 957.371094 1316.300781 " />
  <path fill-rule="evenodd" fill="rgb(87.889099%, 99.609375%, 100%)" fill-opacity="1"
    d="M 1180.050781 630.449219 L 1974.929688 630.449219 C 1988.738281 630.449219 2000.050781 641.761719 2000.050781 655.578125 L 2000.050781 1450.453125 C 2000.050781 1464.273438 1988.738281 1475.578125 1974.929688 1475.578125 L 1180.050781 1475.578125 C 1166.230469 1475.578125 1154.921875 1464.273438 1154.921875 1450.453125 L 1154.921875 655.578125 C 1154.921875 641.761719 1166.230469 630.449219 1180.050781 630.449219 " />
  <path fill-rule="evenodd" fill="rgb(90.234375%, 90.234375%, 90.234375%)" fill-opacity="1"
    d="M 1326.488281 516.621094 L 1635.480469 516.621094 C 1642.910156 516.621094 1648.988281 510.539062 1648.988281 503.109375 C 1648.988281 495.679688 1642.910156 489.589844 1635.480469 489.589844 L 1326.488281 489.589844 C 1319.050781 489.589844 1312.96875 495.679688 1312.96875 503.109375 C 1312.96875 510.539062 1319.050781 516.621094 1326.488281 516.621094 " />
  <path fill-rule="evenodd" fill="rgb(80.076599%, 80.076599%, 80.076599%)" fill-opacity="1"
    d="M 1219.210938 588.269531 C 1254.710938 588.269531 1283.488281 559.488281 1283.488281 523.988281 C 1283.488281 488.488281 1254.710938 459.699219 1219.210938 459.699219 C 1183.699219 459.699219 1154.921875 488.488281 1154.921875 523.988281 C 1154.921875 559.488281 1183.699219 588.269531 1219.210938 588.269531 " />
  <path fill-rule="evenodd" fill="rgb(90.234375%, 90.234375%, 90.234375%)" fill-opacity="1"
    d="M 1326.488281 560.019531 L 1505.828125 560.019531 C 1513.261719 560.019531 1519.339844 553.941406 1519.339844 546.511719 C 1519.339844 539.078125 1513.261719 533 1505.828125 533 L 1326.488281 533 C 1319.050781 533 1312.96875 539.078125 1312.96875 546.511719 C 1312.96875 553.941406 1319.050781 560.019531 1326.488281 560.019531 " />
  <path fill-rule="evenodd" fill="rgb(100%, 36.863708%, 38.818359%)" fill-opacity="1"
    d="M 1163.558594 1554.871094 L 1206.308594 1597.621094 L 1249.058594 1554.871094 C 1260.808594 1543.117188 1260.808594 1523.882812 1249.058594 1512.125 C 1237.300781 1500.367188 1218.070312 1500.367188 1206.308594 1512.125 C 1194.550781 1500.367188 1175.320312 1500.367188 1163.558594 1512.125 C 1151.808594 1523.882812 1151.808594 1543.117188 1163.558594 1554.871094 " />
  <path fill-rule="evenodd" fill="rgb(80.076599%, 80.076599%, 80.076599%)" fill-opacity="1"
    d="M 1375.710938 1578.378906 L 1381.921875 1594.742188 L 1362.371094 1588.847656 C 1355.648438 1592.386719 1347.921875 1594.398438 1339.710938 1594.398438 C 1313.71875 1594.398438 1292.660156 1574.273438 1292.660156 1549.449219 C 1292.660156 1524.625 1313.71875 1504.503906 1339.710938 1504.503906 C 1365.691406 1504.503906 1386.761719 1524.625 1386.761719 1549.449219 C 1386.761719 1560.46875 1382.601562 1570.5625 1375.710938 1578.378906 " />
  <path fill-rule="evenodd" fill="rgb(80.076599%, 80.076599%, 80.076599%)" fill-opacity="1"
    d="M 1517.371094 1508.71875 L 1457.359375 1558.777344 L 1422.539062 1535.175781 Z M 1517.371094 1508.71875 " />
  <path fill-rule="evenodd" fill="rgb(90.234375%, 90.234375%, 90.234375%)" fill-opacity="1"
    d="M 1517.371094 1508.71875 L 1457.359375 1558.777344 L 1474.339844 1597.261719 Z M 1517.371094 1508.71875 " />
  <path fill-rule="evenodd" fill="rgb(19.604492%, 18.431091%, 29.80957%)" fill-opacity="1"
    d="M 632.230469 1386.519531 C 476.382812 1554.660156 691.1875 1580.390625 870.617188 1613.988281 C 897.675781 1620.625 965.050781 1651.535156 976.675781 1615.414062 C 992.464844 1566.355469 899.472656 1534.546875 850.078125 1507.269531 L 817.722656 1489.738281 L 632.230469 1386.519531 " />
  <path fill-rule="evenodd" fill="rgb(40.771484%, 52.146912%, 83.201599%)" fill-opacity="1"
    d="M 912.957031 1861.984375 C 917.984375 1864.785156 939.636719 1883.089844 939.636719 1883.089844 C 958.566406 1895.058594 976.410156 1907.078125 998.597656 1911.621094 C 1003.359375 1912.59375 1008.058594 1913.578125 1012.070312 1914.703125 C 1018.949219 1916.628906 1026.820312 1925.539062 1018.738281 1932.621094 C 1001.878906 1947.378906 954.933594 1936.59375 933.484375 1935.015625 C 926.863281 1934.53125 920.230469 1934.640625 913.609375 1934.453125 C 903.425781 1934.164062 889.933594 1934.742188 880.40625 1931.453125 C 865.910156 1926.445312 869.835938 1917.71875 877.152344 1891.328125 C 878.269531 1887.300781 878.6875 1883.347656 876.929688 1878.589844 L 887.488281 1873.328125 L 895.371094 1867.347656 L 912.957031 1861.984375 " />
  <path fill-rule="evenodd" fill="rgb(19.604492%, 18.431091%, 29.80957%)" fill-opacity="1"
    d="M 976.675781 1615.414062 C 968.019531 1673.066406 955.539062 1727.886719 945.304688 1783.734375 C 941.628906 1803.769531 938.246094 1823.9375 935.433594 1844.417969 L 930.851562 1874.839844 C 902.414062 1896.777344 881.371094 1900.027344 871.425781 1879.21875 C 874.515625 1824.234375 884.824219 1664.355469 884.046875 1609.289062 L 926.617188 1600.570312 C 926.617188 1600.570312 935.292969 1622.320312 944.515625 1619.429688 C 953.734375 1616.535156 956.855469 1612.769531 959.050781 1611.152344 C 961.242188 1609.535156 976.675781 1615.414062 976.675781 1615.414062 " />
  <path fill-rule="evenodd" fill="rgb(19.604492%, 18.431091%, 29.80957%)" fill-opacity="1"
    d="M 647.339844 1375.320312 C 415.667969 1381.171875 548.621094 1554.804688 650.921875 1708.378906 C 665.214844 1732.644531 679.171875 1775.109375 713.515625 1758.035156 C 760.164062 1734.84375 728.78125 1673.203125 713.671875 1618.207031 L 703.527344 1582.417969 L 647.339844 1375.320312 " />
  <path fill-rule="evenodd" fill="rgb(36.083984%, 49.804688%, 76.951599%)" fill-opacity="1"
    d="M 789.730469 1149.078125 C 857.289062 1174.230469 882.457031 1196.988281 862.855469 1263.210938 C 834.65625 1358.488281 787.40625 1291.96875 745.886719 1441.84375 C 675.605469 1476.992188 581.257812 1487.988281 529.007812 1410.84375 C 615.277344 1269.191406 659.089844 1036.480469 789.730469 1149.078125 " />
  <path fill-rule="evenodd" fill="rgb(40.771484%, 52.146912%, 83.201599%)" fill-opacity="1"
    d="M 481.363281 1824.410156 C 479.847656 1830.421875 466.832031 1858.035156 466.832031 1858.035156 C 459.480469 1881.589844 449.773438 1897.804688 465.894531 1906.8125 C 478.753906 1914 497.25 1938.074219 449.363281 1933.996094 C 434.457031 1932.726562 419.453125 1922.675781 416.089844 1900.898438 C 414.027344 1887.5625 412.742188 1874.726562 411.101562 1866.085938 C 409.765625 1859.0625 407.804688 1852.191406 406.160156 1845.253906 C 403.621094 1834.578125 399.265625 1820.703125 400.039062 1809.878906 C 401.214844 1793.40625 411.386719 1795.0625 440.875 1795.328125 C 445.375 1795.367188 476.496094 1795.503906 480.957031 1792.355469 L 462.476562 1801.070312 L 470.890625 1807.609375 L 481.363281 1824.410156 " />
  <path fill-rule="evenodd" fill="rgb(19.604492%, 18.431091%, 29.80957%)" fill-opacity="1"
    d="M 714.191406 1757.578125 C 662.347656 1772.730469 612.628906 1794.113281 561.6875 1807.234375 C 543.414062 1811.941406 525.136719 1816.945312 506.824219 1822.546875 L 479.460938 1830.53125 C 449.949219 1815.15625 439.03125 1798.726562 452.65625 1782.265625 C 500.09375 1763.472656 637.300781 1699.386719 683.300781 1677.308594 L 707.195312 1709.710938 C 707.195312 1709.710938 692.285156 1725.46875 698.304688 1732.097656 C 704.324219 1738.722656 708.703125 1739.886719 710.917969 1741.101562 C 713.128906 1742.316406 714.191406 1757.578125 714.191406 1757.578125 " />
  <path fill-rule="evenodd" fill="rgb(94.921875%, 74.414062%, 59.959412%)" fill-opacity="1"
    d="M 833.816406 1122.179688 L 782.484375 1145.128906 L 805.011719 1193.429688 L 847.070312 1192.21875 L 859.835938 1149.269531 L 833.816406 1122.179688 " />
  <path fill-rule="evenodd" fill="rgb(94.921875%, 74.414062%, 59.959412%)" fill-opacity="1"
    d="M 832.371094 1197.738281 C 815.308594 1204.191406 784.164062 1194.25 782.484375 1145.128906 L 817.660156 1164.320312 L 840.203125 1187.210938 L 844.53125 1190.371094 C 841.613281 1192.640625 837.351562 1195.550781 832.371094 1197.738281 " />
  <path fill-rule="evenodd" fill="rgb(24.705505%, 10.984802%, 18.821716%)" fill-opacity="1"
    d="M 914.957031 1086.730469 C 920.132812 1104.480469 901.28125 1161.898438 900.042969 1141.140625 L 898.734375 1119.191406 L 902.621094 1095.390625 L 905.023438 1080.839844 L 914.957031 1086.730469 " />
  <path fill-rule="evenodd" fill="rgb(98.826599%, 89.0625%, 76.951599%)" fill-opacity="1"
    d="M 801.765625 1119.308594 C 801.953125 1132.910156 801.308594 1148.371094 805.519531 1161.101562 C 813.074219 1183.921875 832.59375 1199.601562 860.976562 1191.988281 C 861.828125 1191.761719 862.660156 1191.511719 863.464844 1191.21875 C 881.996094 1184.660156 891.703125 1164.730469 895.738281 1150.78125 C 896.050781 1149.699219 896.554688 1148.710938 896.96875 1147.71875 C 905.027344 1126.71875 910.148438 1111.320312 905.851562 1093.609375 C 898.339844 1062.628906 849.496094 1035.25 821.253906 1066.261719 C 806.597656 1082.351562 805.839844 1099.058594 801.765625 1119.308594 " />
  <path fill-rule="evenodd" fill="rgb(24.705505%, 10.984802%, 18.821716%)" fill-opacity="1"
    d="M 804.4375 1104.910156 C 806.050781 1096.269531 807.863281 1088.21875 811.582031 1080.5 L 805.183594 1083.28125 L 800.882812 1097.039062 C 802.035156 1098.429688 803.121094 1100.570312 804.039062 1103.589844 C 804.171875 1104.019531 804.304688 1104.460938 804.4375 1104.910156 " />
  <path fill-rule="evenodd" fill="rgb(24.705505%, 10.984802%, 18.821716%)" fill-opacity="1"
    d="M 813.082031 1081.300781 C 835.527344 1057.46875 874.886719 1080.460938 900.582031 1089.761719 C 912.675781 1108.601562 950.039062 1076.308594 946.945312 1058.089844 C 943.546875 1038.101562 896.839844 1031.21875 843.15625 1036.320312 C 812.207031 1039.261719 802.085938 1075.179688 800.882812 1097.039062 L 813.082031 1081.300781 " />
  <path fill-rule="evenodd" fill="rgb(24.705505%, 10.984802%, 18.821716%)" fill-opacity="1"
    d="M 818.855469 1069.039062 C 818.488281 1068.738281 824.304688 1099.53125 804.4375 1104.910156 L 804.320312 1100.898438 L 808.382812 1081.890625 L 818.855469 1069.039062 " />
  <path fill-rule="evenodd" fill="rgb(98.826599%, 89.0625%, 76.951599%)" fill-opacity="1"
    d="M 801.5625 1125.328125 L 809.140625 1129.210938 L 808.492188 1120.109375 C 808.050781 1118.460938 805.96875 1109.921875 804.039062 1103.589844 C 796.730469 1079.570312 778.929688 1111.578125 801.5625 1125.328125 " />
  <path fill-rule="evenodd" fill="rgb(98.826599%, 89.0625%, 76.951599%)" fill-opacity="1"
    d="M 893.898438 1148.101562 L 900.0625 1135.070312 C 906.242188 1125.890625 914.320312 1125.929688 910.199219 1137.25 C 904.203125 1153.730469 901.988281 1151.011719 891.6875 1156.839844 L 893.898438 1148.101562 " />
  <path fill-rule="evenodd" fill="rgb(24.705505%, 10.984802%, 18.821716%)" fill-opacity="1"
    d="M 820.882812 1053.25 C 839.824219 1073.351562 881.363281 1117 915.078125 1097.480469 L 920.246094 1089.539062 L 904.5625 1057.210938 L 879.371094 1054.261719 C 879.371094 1054.261719 856.589844 1052.078125 854.128906 1051.820312 C 851.667969 1051.550781 820.882812 1053.25 820.882812 1053.25 " />
  <path fill-rule="evenodd" fill="rgb(24.705505%, 10.984802%, 18.821716%)" fill-opacity="1"
    d="M 860.585938 1060.148438 C 848.742188 1073.621094 822.828125 1102.828125 809.398438 1082.53125 L 808.019531 1075.46875 L 820 1051.738281 L 832.460938 1052.859375 C 832.460938 1052.859375 843.664062 1054.269531 844.878906 1054.398438 C 846.089844 1054.53125 860.585938 1060.148438 860.585938 1060.148438 " />
  <path fill-rule="evenodd" fill="rgb(54.492188%, 67.381287%, 92.96875%)" fill-opacity="1"
    d="M 790.621094 1226.78125 L 833.226562 1353.730469 L 828.40625 1396.339844 C 788.519531 1435.710938 770.742188 1393.460938 753.175781 1355.03125 C 732.777344 1310.410156 706.320312 1253.648438 692.929688 1207.769531 C 662.746094 1104.351562 753.769531 1093.289062 790.621094 1226.78125 " />
  <path fill-rule="evenodd" fill="rgb(30.979919%, 44.309998%, 70.896912%)" fill-opacity="1"
    d="M 691.800781 1203.738281 C 697.257812 1224.640625 731.511719 1352.75 762.179688 1393.851562 C 763.738281 1390.171875 765.300781 1386.730469 766.867188 1383.480469 C 762.054688 1374.671875 757.609375 1364.730469 753.175781 1355.03125 C 732.777344 1310.410156 706.320312 1253.648438 692.929688 1207.769531 C 692.539062 1206.441406 692.175781 1205.128906 691.828125 1203.839844 C 691.816406 1203.808594 691.808594 1203.78125 691.800781 1203.738281 " />
  <path fill-rule="evenodd" fill="rgb(98.826599%, 89.0625%, 76.951599%)" fill-opacity="1"
    d="M 1235.820312 1144.46875 L 1217.03125 1126.671875 L 1209.570312 1110.460938 L 1201.839844 1096.558594 L 1190.160156 1084.589844 C 1186.609375 1079 1185.550781 1076.398438 1180.28125 1073.03125 L 1174.230469 1066.488281 C 1170.078125 1064.039062 1167.820312 1063.96875 1166.828125 1065.558594 C 1163.710938 1070.609375 1169.789062 1081.429688 1172.550781 1085.738281 L 1156.980469 1072.800781 L 1149.320312 1065.921875 L 1138.039062 1058.300781 L 1129.101562 1053.039062 L 1122.378906 1048.921875 L 1117.148438 1046.808594 C 1113.53125 1048.300781 1112.128906 1050.25 1112.101562 1052.460938 C 1112 1059.28125 1122.421875 1066.089844 1126.78125 1069.601562 L 1140.890625 1080.359375 L 1147.398438 1086.828125 L 1142.789062 1084.679688 L 1134.839844 1077.75 L 1126.550781 1072.109375 L 1120.828125 1069.378906 L 1113.398438 1066.988281 L 1097.730469 1061.699219 L 1091.519531 1059.210938 C 1083.761719 1066.75 1085.890625 1072.070312 1094.449219 1076.691406 C 1106.039062 1079.101562 1109.25 1080.449219 1119.46875 1087.511719 L 1111.269531 1085.300781 L 1089.539062 1076.53125 C 1087.96875 1076.429688 1087.019531 1076.300781 1086.378906 1076.5 C 1085.421875 1076.808594 1085.171875 1077.878906 1084.589844 1080.988281 C 1083.238281 1088.199219 1087.941406 1089.070312 1095.230469 1092.53125 L 1107.828125 1098.378906 C 1115.050781 1102.171875 1122.691406 1105.738281 1129.25 1110.96875 C 1131.460938 1112.730469 1133.539062 1114.679688 1135.449219 1116.890625 L 1136.261719 1121.488281 L 1134.609375 1122.511719 C 1123.398438 1117.238281 1113.171875 1115.171875 1101.351562 1112.71875 L 1095.378906 1110.628906 L 1091.738281 1112.941406 C 1091.761719 1118.121094 1094.269531 1121.261719 1097.71875 1123.429688 C 1099.691406 1124.671875 1101.960938 1125.589844 1104.25 1126.398438 C 1111.789062 1129.039062 1119.089844 1131.960938 1126.691406 1134.5 L 1131.328125 1136.488281 L 1143.140625 1144.558594 C 1171 1164.300781 1176.871094 1160.828125 1194.46875 1166.101562 L 1220.871094 1177.398438 L 1235.820312 1144.46875 " />
  <path fill-rule="evenodd" fill="rgb(24.705505%, 10.984802%, 18.821716%)" fill-opacity="1"
    d="M 1535.589844 1024.140625 C 1638.730469 975.921875 1630.019531 945.171875 1677.109375 938.609375 C 1830.691406 802.148438 1669.628906 715.179688 1659.851562 776.980469 C 1659.699219 782.339844 1668.730469 787.28125 1666.71875 790.871094 C 1655.03125 811.769531 1616.089844 804.21875 1598.859375 786.019531 C 1579.359375 765.429688 1559.261719 738.878906 1529.328125 734.910156 C 1488.589844 730.480469 1459.761719 739.75 1438.53125 791.851562 C 1428.171875 817.601562 1430.828125 837.46875 1436.910156 863.949219 C 1439.320312 874.429688 1453.71875 881.140625 1459.710938 888.261719 C 1460.511719 889.210938 1462.738281 897.570312 1464.101562 906.699219 C 1467.621094 930.238281 1454.300781 937.378906 1450 929.941406 C 1447.191406 925.070312 1446.839844 917 1440.691406 915.679688 C 1426.800781 912.699219 1368.109375 1069.808594 1535.589844 1024.140625 " />
  <path fill-rule="evenodd" fill="rgb(98.826599%, 89.0625%, 76.951599%)" fill-opacity="1"
    d="M 1462.828125 1078.070312 L 1450 1102.859375 L 1406.890625 1176.019531 C 1396.96875 1226.140625 1418.96875 1230.609375 1436.21875 1246.609375 C 1456.179688 1235.429688 1560.351562 1102.019531 1580.839844 1021.988281 C 1582.03125 1017.328125 1584.828125 1001.761719 1584.480469 997.46875 C 1582.378906 994.949219 1579.238281 991.980469 1577.128906 990 C 1503.449219 920.78125 1484.890625 992.160156 1462.828125 1078.070312 " />
  <path fill-rule="evenodd" fill="rgb(94.921875%, 43.920898%, 38.818359%)" fill-opacity="1"
    d="M 1533.980469 962.941406 C 1511.980469 958.351562 1497.628906 974.269531 1486.300781 1000.730469 C 1463.679688 1053.53125 1466.761719 1071.320312 1433.769531 1125.011719 C 1462.351562 1124.660156 1503.191406 1141.949219 1524.660156 1153.621094 C 1545.460938 1120.488281 1565.441406 1069.949219 1575.960938 1038.660156 C 1577.890625 1032.921875 1579.53125 1027.339844 1580.839844 1021.988281 C 1581.980469 1017.308594 1584.828125 1001.761719 1584.480469 997.46875 C 1582.378906 994.941406 1579.238281 991.980469 1577.128906 990 C 1560.019531 973.921875 1545.878906 965.429688 1533.980469 962.941406 " />
  <path fill-rule="evenodd" fill="rgb(94.921875%, 74.414062%, 59.959412%)" fill-opacity="1"
    d="M 1533.210938 930.011719 L 1557.609375 979.21875 C 1557.609375 979.21875 1596.25 961.78125 1599.050781 960.140625 C 1601.839844 958.488281 1644.808594 929.488281 1644.808594 929.488281 C 1619.449219 914.109375 1598.839844 886.351562 1580.558594 852.53125 L 1547.328125 887.488281 L 1533.210938 930.011719 " />
  <path fill-rule="evenodd" fill="rgb(98.826599%, 89.0625%, 76.951599%)" fill-opacity="1"
    d="M 1477.960938 881.941406 C 1495.109375 909.070312 1508.449219 936.828125 1543.929688 941.390625 C 1592.691406 947.648438 1605.640625 880.261719 1588.511719 845.78125 C 1580.621094 829.898438 1576.671875 815.460938 1565.960938 804.519531 C 1557.621094 795.988281 1546.230469 789.261719 1529.230469 784.511719 C 1512.46875 779.828125 1496.351562 780.609375 1482.628906 790.320312 C 1446.058594 816.191406 1464.691406 846.289062 1477.960938 881.941406 " />
  <path fill-rule="evenodd" fill="rgb(98.826599%, 89.0625%, 76.951599%)" fill-opacity="1"
    d="M 1481.648438 875.738281 C 1478.800781 874.628906 1476.398438 873.589844 1474.371094 872.738281 C 1456.050781 865.03125 1464.539062 880.570312 1472.988281 891.988281 C 1481.148438 903.019531 1487.421875 908.660156 1501.03125 907.589844 L 1499.03125 900.53125 C 1499.03125 900.53125 1491.28125 892.25 1490.261719 890.480469 C 1489.25 888.710938 1481.648438 875.738281 1481.648438 875.738281 " />
  <path fill-rule="evenodd" fill="rgb(98.826599%, 89.0625%, 76.951599%)" fill-opacity="1"
    d="M 1586.289062 817.96875 C 1589.75 818.441406 1593.960938 821.308594 1598.621094 827.121094 C 1608.171875 838.980469 1604.058594 847.488281 1597.660156 856.601562 C 1595.761719 859.300781 1593.660156 862.050781 1591.660156 864.949219 L 1585.058594 867.960938 C 1581.910156 858.558594 1566.820312 815.351562 1586.289062 817.96875 " />
  <path fill-rule="evenodd" fill="rgb(24.705505%, 10.984802%, 18.821716%)" fill-opacity="1"
    d="M 1520.691406 768.671875 C 1521.160156 797.378906 1481.308594 832.421875 1454.050781 847.75 L 1446.128906 831.238281 L 1448.601562 801.171875 C 1448.601562 801.171875 1453.640625 790.75 1454.710938 790.269531 C 1455.78125 789.78125 1472 780.980469 1472 780.980469 L 1520.691406 768.671875 " />
  <path fill-rule="evenodd" fill="rgb(63.867188%, 14.892578%, 18.041992%)" fill-opacity="1"
    d="M 1730.179688 1213.898438 C 1750.679688 1262.03125 1781.851562 1342.589844 1718.890625 1406.269531 C 1697.609375 1427.800781 1662.300781 1450.226562 1627.328125 1475.578125 L 1434.199219 1475.578125 C 1456.628906 1446.355469 1480.988281 1418.542969 1498.960938 1395.96875 L 1529.339844 1349.171875 C 1552.339844 1314.058594 1679.390625 1094.621094 1730.179688 1213.898438 " />
  <path fill-rule="evenodd" fill="rgb(63.867188%, 14.892578%, 18.041992%)" fill-opacity="1"
    d="M 1822.910156 1183.390625 C 1858.679688 1204.460938 1908.441406 1277.78125 1894.339844 1346.558594 C 1886.238281 1386.089844 1861.429688 1437.335938 1842.078125 1475.578125 L 1671.878906 1475.578125 C 1675.039062 1446.054688 1679.710938 1419.007812 1683.578125 1400.210938 L 1687.71875 1357.339844 C 1690.988281 1325.078125 1734.261719 1131.179688 1822.910156 1183.390625 " />
  <path fill-rule="evenodd" fill="rgb(100%, 54.881287%, 50.976562%)" fill-opacity="1"
    d="M 1507.179688 1126.421875 C 1555.589844 1171.121094 1571.449219 1157.308594 1599.730469 1246.410156 C 1661.351562 1282.058594 1862.761719 1307.429688 1855.460938 1185.859375 C 1770.898438 1147 1754.308594 1068.660156 1733.328125 930.730469 C 1644.230469 899.601562 1782.53125 845.960938 1626.21875 915.351562 C 1598.480469 927.660156 1562.390625 944.609375 1513.101562 965.429688 C 1498.691406 997.011719 1480.390625 1101.679688 1507.179688 1126.421875 " />
  <path fill-rule="evenodd" fill="rgb(98.826599%, 89.0625%, 76.951599%)" fill-opacity="1"
    d="M 1214.71875 1121.640625 C 1209.878906 1150.441406 1214.148438 1145.039062 1193.78125 1165.898438 C 1227.269531 1186.691406 1331.128906 1237.46875 1389.871094 1252.839844 C 1442.289062 1266.570312 1451.671875 1227.898438 1462.730469 1190.910156 C 1404.480469 1167.519531 1278.191406 1167.011719 1214.71875 1121.640625 " />
  <path fill-rule="evenodd" fill="rgb(94.921875%, 74.414062%, 59.959412%)" fill-opacity="1"
    d="M 1544.21875 952.210938 C 1546.03125 960.519531 1605.109375 1004.011719 1627.109375 916.160156 C 1606.480469 910.078125 1591.671875 919.011719 1578.421875 933.179688 C 1569.691406 940.019531 1552.171875 945.148438 1544.21875 952.210938 " />
  <path fill-rule="evenodd" fill="rgb(98.826599%, 89.0625%, 76.951599%)" fill-opacity="1"
    d="M 1675.628906 1011.691406 L 1666.480469 1144.871094 C 1675.269531 1195.210938 1697.410156 1191.460938 1719.261719 1200.179688 C 1730.628906 1186.449219 1763 1085.039062 1772.148438 1002.128906 C 1780.289062 928.269531 1778.390625 915.160156 1725.570312 900.449219 C 1666.789062 884.078125 1665.859375 903.371094 1675.628906 1011.691406 " />
  <path fill-rule="evenodd" fill="rgb(94.921875%, 43.920898%, 38.818359%)" fill-opacity="1"
    d="M 1763.710938 1086.289062 C 1741.429688 1076.121094 1693.808594 1067.25 1669.410156 1069.78125 C 1669.980469 1047.269531 1670.621094 1003.308594 1661 960.25 C 1638.351562 854.621094 1787.800781 857.191406 1777.671875 945.808594 C 1777.351562 948.609375 1778 951.5 1778.070312 954.449219 C 1778.871094 992.660156 1770.351562 1046.558594 1763.710938 1086.289062 " />
  <path fill-rule="evenodd" fill="rgb(98.826599%, 89.0625%, 76.951599%)" fill-opacity="1"
    d="M 1505.730469 1311.671875 C 1529.148438 1329.109375 1521.621094 1330.351562 1530.898438 1357.988281 C 1564.671875 1337.671875 1663.988281 1269.671875 1704.46875 1224.410156 C 1740.578125 1184.019531 1710.449219 1158.039062 1682.578125 1131.328125 C 1635.191406 1172.5 1575.050781 1275.871094 1505.730469 1311.671875 " />
  <path fill-rule="evenodd" fill="rgb(98.826599%, 89.0625%, 76.951599%)" fill-opacity="1"
    d="M 1523.058594 1305.460938 L 1490.820312 1317.019531 L 1471.480469 1320.539062 L 1450.53125 1322.699219 L 1440.988281 1325.941406 L 1430.078125 1331.921875 L 1429.21875 1340.578125 L 1430.390625 1346.269531 L 1420.609375 1349.960938 L 1415.660156 1360.011719 L 1422.101562 1373.421875 L 1426.71875 1384.78125 L 1433.011719 1390.441406 C 1433.011719 1390.441406 1446.820312 1395.261719 1449.21875 1396.160156 C 1451.609375 1397.058594 1469.421875 1404.140625 1469.421875 1404.140625 L 1475.230469 1404.453125 L 1494.289062 1391.710938 L 1545.019531 1348.640625 L 1549.570312 1344.601562 C 1550.210938 1320.628906 1545.269531 1314.648438 1523.058594 1305.460938 " />
  <path fill-rule="evenodd" fill="rgb(98.826599%, 89.0625%, 76.951599%)" fill-opacity="1"
    d="M 1422.269531 1349.339844 L 1375.179688 1365.949219 L 1366.320312 1370.839844 L 1365.148438 1374.269531 L 1364.960938 1376.671875 L 1367.941406 1379.320312 L 1373.78125 1378.300781 L 1441.339844 1362.980469 L 1431.101562 1358.589844 L 1430.308594 1353.609375 L 1422.269531 1349.339844 " />
  <path fill-rule="evenodd" fill="rgb(98.826599%, 89.0625%, 76.951599%)" fill-opacity="1"
    d="M 987.964844 1448.8125 L 1015.460938 1457.195312 L 1031.820312 1459.363281 L 1049.46875 1460.324219 L 1057.609375 1462.652344 L 1066.988281 1467.226562 L 1068.070312 1474.453125 L 1067.320312 1479.269531 L 1075.660156 1481.972656 L 1080.230469 1490.195312 L 1075.359375 1501.695312 L 1071.949219 1511.410156 L 1066.910156 1516.414062 C 1066.910156 1516.414062 1055.53125 1521.015625 1053.550781 1521.867188 C 1051.578125 1522.71875 1036.941406 1529.378906 1036.941406 1529.378906 L 1032.078125 1529.871094 L 1015.578125 1519.960938 L 971.300781 1485.910156 L 967.320312 1482.710938 C 965.816406 1462.632812 969.710938 1457.421875 987.964844 1448.8125 " />
  <path fill-rule="evenodd" fill="rgb(98.826599%, 89.0625%, 76.951599%)" fill-opacity="1"
    d="M 1074.25 1481.515625 L 1114.410156 1493.535156 L 1122.03125 1497.269531 L 1123.148438 1500.105469 L 1123.410156 1502.109375 L 1121.019531 1504.445312 L 1116.078125 1503.835938 L 1058.820312 1493.726562 L 1067.21875 1489.628906 L 1067.679688 1485.421875 L 1074.25 1481.515625 " />
  <path fill-rule="evenodd" fill="rgb(54.492188%, 67.381287%, 92.96875%)" fill-opacity="1"
    d="M 804.480469 1349.050781 C 675.566406 1395.480469 919.710938 1470.441406 976.296875 1492.160156 L 1001.050781 1444.746094 L 878.097656 1377.621094 L 832.1875 1350.640625 L 804.480469 1349.050781 " />
  <path fill-rule="evenodd" fill="rgb(100%, 36.863708%, 38.818359%)" fill-opacity="1"
    d="M 716.726562 849.25 L 553.058594 849.25 C 537.570312 849.25 524.902344 861.921875 524.902344 877.410156 L 524.902344 972.441406 C 524.902344 987.929688 537.574219 1000.601562 553.058594 1000.601562 L 666.390625 1000.601562 L 689.949219 1024.160156 C 696.449219 1030.660156 701.929688 1033.351562 701.933594 1024.160156 L 701.953125 1000.601562 L 716.726562 1000.601562 C 732.214844 1000.601562 744.886719 987.929688 744.886719 972.441406 L 744.886719 877.410156 C 744.886719 861.921875 732.214844 849.25 716.726562 849.25 " />
  <path fill-rule="evenodd" fill="rgb(100%, 100%, 100%)" fill-opacity="1"
    d="M 589.871094 931.339844 L 635.023438 976.5 L 680.175781 931.339844 C 692.589844 918.929688 692.589844 898.609375 680.175781 886.191406 C 667.757812 873.78125 647.4375 873.78125 635.023438 886.191406 C 622.605469 873.78125 602.289062 873.78125 589.871094 886.191406 C 577.453125 898.609375 577.453125 918.929688 589.871094 931.339844 " />
  <path fill-rule="evenodd" fill="rgb(100%, 52.539062%, 50.976562%)" fill-opacity="1"
    d="M 799.609375 822.769531 L 881.347656 822.769531 C 889.082031 822.769531 895.410156 829.089844 895.410156 836.828125 L 895.410156 884.289062 C 895.410156 892.019531 889.082031 898.351562 881.347656 898.351562 L 824.75 898.351562 L 812.984375 910.121094 C 809.738281 913.359375 807 914.710938 806.996094 910.121094 L 806.988281 898.351562 L 799.609375 898.351562 C 791.878906 898.351562 785.546875 892.019531 785.546875 884.289062 L 785.546875 836.828125 C 785.546875 829.089844 791.875 822.769531 799.609375 822.769531 " />
  <path fill-rule="evenodd" fill="rgb(100%, 100%, 100%)" fill-opacity="1"
    d="M 862.964844 863.769531 L 840.414062 886.308594 L 817.863281 863.769531 C 811.664062 857.558594 811.664062 847.421875 817.863281 841.21875 C 824.066406 835.019531 834.214844 835.019531 840.414062 841.21875 C 846.613281 835.019531 856.761719 835.019531 862.964844 841.21875 C 869.164062 847.421875 869.164062 857.558594 862.964844 863.769531 " />
</svg>
